<svg width="80" height="78" viewBox="0 0 80 78" fill="none" xmlns="http://www.w3.org/2000/svg">
<path d="M80 47.5854C80 45.3643 78.5581 43.4737 76.5612 42.8004C76.3067 31.2137 66.8023 21.8662 55.1556 21.8662H41.5625V18.7221L54.8606 11.0443C55.3441 10.7652 55.6419 10.2495 55.6419 9.69117C55.6419 9.13289 55.3441 8.61711 54.8606 8.33805L40.7812 0.209297C40.2978 -0.0697656 39.7022 -0.0697656 39.2188 0.209297C38.7353 0.488359 38.4375 1.00414 38.4375 1.56242V21.8662H24.8442C13.1975 21.8662 3.69313 31.2135 3.43859 42.8002C1.44187 43.4737 0 45.3643 0 47.5854C0 49.1934 0.778281 50.6709 2.00328 51.6055C1.03094 52.831 0.476875 54.3671 0.476875 55.9859C0.476875 58.3474 1.64484 60.4413 3.43328 61.7204V65.8869C3.43328 72.2288 8.59281 77.3884 14.9347 77.3884H65.0652C71.407 77.3884 76.5666 72.2288 76.5666 65.8869V61.7204C78.3552 60.4413 79.523 58.3474 79.523 55.9859C79.523 54.3671 78.9691 52.831 77.9966 51.6055C79.2219 50.6709 80 49.1932 80 47.5854ZM41.5625 4.26883L50.9544 9.69133L41.5625 15.1137V4.26883ZM24.8442 24.9912H55.1556C64.9905 24.9912 73.0369 32.7963 73.4269 42.5373H6.57312C6.60969 41.6234 6.71375 40.7263 6.88016 39.8513H57.2616C58.1245 39.8513 58.8241 39.1518 58.8241 38.2888C58.8241 37.4259 58.1245 36.7263 57.2616 36.7263H7.77156C10.4114 29.8698 17.0689 24.9912 24.8442 24.9912ZM72.477 59.9068H60.0922C60.5544 59.2123 60.8956 58.4305 61.0856 57.5921C62.1317 58.1137 63.4013 58.4676 65.0044 58.4676C68.3894 58.4676 70.6973 56.4429 72.5517 54.8162C73.3795 54.0901 74.1716 53.3952 74.9586 52.9495C75.8603 53.687 76.398 54.7963 76.398 55.9859C76.3981 58.1479 74.6391 59.9068 72.477 59.9068ZM68.9772 50.5624C68.9772 52.6905 67.2458 54.422 65.1177 54.422C62.9895 54.422 61.2581 52.6905 61.2581 50.5624C61.2581 49.6995 60.5586 48.9999 59.6956 48.9999C58.8327 48.9999 58.1331 49.6995 58.1331 50.5624V56.0473C58.1331 58.1754 56.4017 59.9068 54.2736 59.9068C52.1455 59.9068 50.4141 58.1754 50.4141 56.0473V50.5624C50.4141 49.6995 49.7145 48.9999 48.8516 48.9999C47.9886 48.9999 47.2891 49.6995 47.2891 50.5624C47.2891 52.6359 45.6456 54.3326 43.593 54.4185C43.5762 54.4188 43.5595 54.4195 43.5428 54.4202C43.5052 54.4213 43.4673 54.422 43.4295 54.422C41.3014 54.422 39.57 52.6905 39.57 50.5624V45.6623H68.9773V50.5624H68.9772ZM3.60188 55.9859C3.60188 54.7963 4.13953 53.687 5.04125 52.9495C5.82844 53.3952 6.62031 54.0901 7.44812 54.8162C9.30266 56.443 11.6106 58.4676 14.9955 58.4676C18.7689 58.4676 20.755 56.4696 22.3508 54.8641C23.84 53.366 25.0162 52.1827 27.4898 52.1827C29.9633 52.1827 31.1394 53.366 32.6286 54.864C34.2245 56.4695 36.2106 58.4676 39.9848 58.4676H40.015C41.5217 58.4676 42.8545 58.1562 44.0766 57.5171C45.2594 57.4079 46.3578 57.0024 47.2964 56.3762C47.357 57.677 47.7752 58.886 48.4545 59.9068H7.52281C5.36094 59.9068 3.60188 58.1479 3.60188 55.9859ZM5.04812 45.6623H36.4448V50.5624C36.4448 52.2709 37.0616 53.838 38.0839 55.053C36.7853 54.613 35.8927 53.7149 34.845 52.661C33.2492 51.0557 31.2633 49.0579 27.49 49.0579C23.7164 49.0579 21.7303 51.0559 20.1345 52.6613C18.6453 54.1595 17.4692 55.3427 14.9956 55.3427C12.7872 55.3427 11.1948 53.946 9.50906 52.4671C8.27594 51.3855 7.00109 50.267 5.43984 49.6984C5.30578 49.6495 5.16703 49.6198 5.0275 49.6088C4.90391 49.5427 4.76938 49.4923 4.62594 49.4605C3.75625 49.2691 3.125 48.4804 3.125 47.5854C3.125 46.5249 3.98766 45.6623 5.04812 45.6623ZM73.4416 63.0318V65.8871C73.4416 65.9651 73.4405 66.0427 73.4383 66.1201H23.428C22.565 66.1201 21.8655 66.8196 21.8655 67.6826C21.8655 68.5455 22.565 69.2451 23.428 69.2451H72.7389C71.4422 72.197 68.4905 74.2635 65.0652 74.2635H14.9347C10.3159 74.2635 6.55828 70.5059 6.55828 65.8871V63.0318H73.4416ZM75.3741 49.4607C75.2305 49.4924 75.0958 49.5429 74.9722 49.609C74.8328 49.6199 74.6941 49.6496 74.5602 49.6985C73.6523 50.0291 72.8412 50.5459 72.0789 51.1329C72.0942 50.9448 72.102 50.7545 72.102 50.5624V45.6623H74.9517C76.0122 45.6623 76.8748 46.5249 76.8748 47.5854C76.875 48.4804 76.2438 49.2691 75.3741 49.4607Z" fill="#323232"/>
</svg>
