<svg width="51" height="55" viewBox="0 0 51 55" fill="none" xmlns="http://www.w3.org/2000/svg">
<path d="M49.0681 16.1073H41.6488C42.0513 14.9708 42.2602 13.7656 42.2602 12.5515C42.2602 11.6595 42.1498 10.7928 41.9418 9.96439L43.5244 9.21483C43.9155 9.67499 44.4221 10.0266 45.0061 10.2352C45.8837 10.5488 46.8305 10.5014 47.672 10.1027C48.5139 9.70399 49.1502 9.00125 49.4634 8.12386C49.7768 7.24657 49.7296 6.29977 49.3309 5.45803C49.0342 4.83144 48.5688 4.32002 47.9944 3.97134C48.0887 3.30615 47.9878 2.62229 47.691 1.9957C46.8677 0.25778 44.7842 -0.486302 43.046 0.336671C41.5923 1.02528 40.8337 2.59581 41.1064 4.10803L39.1424 5.03837C37.2179 3.11419 34.5609 1.9225 31.6307 1.9225C29.0996 1.9225 26.7722 2.81181 24.9447 4.29449C21.2493 2.70424 17.0946 2.77173 13.4384 4.50353C10.9974 5.65979 8.95833 7.47965 7.5422 9.76643C6.35008 11.6917 5.64502 13.8651 5.47786 16.1075H1.7547C1.1722 16.1075 0.700012 16.5798 0.700012 17.1622V22.3075C0.700012 22.8899 1.1722 23.3622 1.7547 23.3622H3.29412L6.88797 53.0733C6.9521 53.603 7.4015 54.0013 7.93507 54.0013H42.8876C43.4212 54.0013 43.8706 53.603 43.9347 53.0733L47.5286 23.3622H49.068C49.6504 23.3622 50.1227 22.8899 50.1227 22.3075V17.162C50.1228 16.5796 49.6505 16.1073 49.0681 16.1073ZM42.8584 5.61222C43.1212 5.48777 43.321 5.26027 43.4104 4.98363C43.4999 4.70688 43.4711 4.40555 43.3309 4.15074C43.3181 4.12733 43.3055 4.1036 43.2936 4.07849C42.9683 3.39179 43.2624 2.56839 43.9491 2.24313C44.6361 1.91786 45.4593 2.21191 45.7847 2.89861C45.9669 3.28358 45.9619 3.7237 45.7704 4.10623C45.6254 4.39606 45.6217 4.73662 45.7604 5.02951C45.8991 5.32239 46.1649 5.53533 46.4811 5.60684C46.8983 5.70124 47.2421 5.97609 47.4245 6.36105C47.5821 6.6937 47.6006 7.0678 47.4768 7.41447C47.353 7.76115 47.1015 8.03885 46.7689 8.19642C46.4365 8.35388 46.0624 8.37287 45.7155 8.24873C45.3688 8.12491 45.0911 7.87347 44.9332 7.5403C44.9213 7.51509 44.9105 7.48957 44.9002 7.46394C44.7915 7.19468 44.5764 6.98226 44.3059 6.87669C44.0353 6.77111 43.7332 6.78166 43.4709 6.90601L41.2217 7.97145C41.0139 7.53798 40.7775 7.12074 40.515 6.72207L42.8584 5.61222ZM31.6309 4.03167C36.3288 4.03167 40.1507 7.85375 40.1507 12.5515C40.1507 13.7807 39.8839 14.9981 39.375 16.1072H23.8867C23.3777 14.9982 23.111 13.7809 23.111 12.5515C23.111 7.85375 26.9331 4.03167 31.6309 4.03167ZM14.3417 6.40967C17.1888 5.06125 20.3926 4.90136 23.325 5.92599C21.8715 7.74427 21.0016 10.0483 21.0016 12.5518C21.0016 13.7657 21.2105 14.9708 21.613 16.1074H7.59483C7.96523 11.9476 10.5299 8.21509 14.3417 6.40967ZM45.1155 25.7453H14.8773C14.2948 25.7453 13.8227 26.2175 13.8227 26.8C13.8227 27.3825 14.2948 27.8546 14.8773 27.8546H44.8603L41.9529 51.8918H8.86984L6.55648 32.7661H33.3964C33.9789 32.7661 34.4511 32.2938 34.4511 31.7114C34.4511 31.129 33.9789 30.6567 33.3964 30.6567H6.30125L5.4189 23.3622H45.4038L45.1155 25.7453ZM48.0134 21.2527H2.80939V18.2169H48.0134V21.2527Z" fill="#323232"/>
</svg>
