<svg width="229" height="84" viewBox="0 0 229 84" fill="none" xmlns="http://www.w3.org/2000/svg">
<path d="M110.76 22.92V28.4H99.32V34.32H107.88V39.64H99.32V51H92.48V22.92H110.76ZM124.515 51.32C122.328 51.32 120.355 50.8533 118.595 49.92C116.862 48.9867 115.488 47.6533 114.475 45.92C113.488 44.1867 112.995 42.16 112.995 39.84C112.995 37.5467 113.502 35.5333 114.515 33.8C115.528 32.04 116.915 30.6933 118.675 29.76C120.435 28.8267 122.408 28.36 124.595 28.36C126.782 28.36 128.755 28.8267 130.515 29.76C132.275 30.6933 133.662 32.04 134.675 33.8C135.688 35.5333 136.195 37.5467 136.195 39.84C136.195 42.1333 135.675 44.16 134.635 45.92C133.622 47.6533 132.222 48.9867 130.435 49.92C128.675 50.8533 126.702 51.32 124.515 51.32ZM124.515 45.4C125.822 45.4 126.928 44.92 127.835 43.96C128.768 43 129.235 41.6267 129.235 39.84C129.235 38.0533 128.782 36.68 127.875 35.72C126.995 34.76 125.902 34.28 124.595 34.28C123.262 34.28 122.155 34.76 121.275 35.72C120.395 36.6533 119.955 38.0267 119.955 39.84C119.955 41.6267 120.382 43 121.235 43.96C122.115 44.92 123.208 45.4 124.515 45.4ZM149.984 51.32C147.797 51.32 145.824 50.8533 144.064 49.92C142.33 48.9867 140.957 47.6533 139.944 45.92C138.957 44.1867 138.464 42.16 138.464 39.84C138.464 37.5467 138.97 35.5333 139.984 33.8C140.997 32.04 142.384 30.6933 144.144 29.76C145.904 28.8267 147.877 28.36 150.064 28.36C152.25 28.36 154.224 28.8267 155.984 29.76C157.744 30.6933 159.13 32.04 160.144 33.8C161.157 35.5333 161.664 37.5467 161.664 39.84C161.664 42.1333 161.144 44.16 160.104 45.92C159.09 47.6533 157.69 48.9867 155.904 49.92C154.144 50.8533 152.17 51.32 149.984 51.32ZM149.984 45.4C151.29 45.4 152.397 44.92 153.304 43.96C154.237 43 154.704 41.6267 154.704 39.84C154.704 38.0533 154.25 36.68 153.344 35.72C152.464 34.76 151.37 34.28 150.064 34.28C148.73 34.28 147.624 34.76 146.744 35.72C145.864 36.6533 145.424 38.0267 145.424 39.84C145.424 41.6267 145.85 43 146.704 43.96C147.584 44.92 148.677 45.4 149.984 45.4ZM163.933 39.8C163.933 37.5067 164.359 35.4933 165.213 33.76C166.093 32.0267 167.279 30.6933 168.773 29.76C170.266 28.8267 171.933 28.36 173.773 28.36C175.239 28.36 176.573 28.6667 177.773 29.28C178.999 29.8933 179.959 30.72 180.653 31.76V21.4H187.493V51H180.653V47.8C180.013 48.8667 179.093 49.72 177.893 50.36C176.719 51 175.346 51.32 173.773 51.32C171.933 51.32 170.266 50.8533 168.773 49.92C167.279 48.96 166.093 47.6133 165.213 45.88C164.359 44.12 163.933 42.0933 163.933 39.8ZM180.653 39.84C180.653 38.1333 180.173 36.7867 179.213 35.8C178.279 34.8133 177.133 34.32 175.773 34.32C174.413 34.32 173.253 34.8133 172.293 35.8C171.359 36.76 170.893 38.0933 170.893 39.8C170.893 41.5067 171.359 42.8667 172.293 43.88C173.253 44.8667 174.413 45.36 175.773 45.36C177.133 45.36 178.279 44.8667 179.213 43.88C180.173 42.8933 180.653 41.5467 180.653 39.84ZM215.241 28.68L201.241 61.6H193.881L199.001 50.24L189.921 28.68H197.561L202.721 42.64L207.841 28.68H215.241Z" fill="#323232"/>
<path d="M122.25 75H120.612L114.024 65.01V75H112.386V62.436H114.024L120.612 72.408V62.436H122.25V75ZM124.43 70.032C124.43 69.024 124.634 68.142 125.042 67.386C125.45 66.618 126.008 66.024 126.716 65.604C127.436 65.184 128.234 64.974 129.11 64.974C129.974 64.974 130.724 65.16 131.36 65.532C131.996 65.904 132.47 66.372 132.782 66.936V65.136H134.438V75H132.782V73.164C132.458 73.74 131.972 74.22 131.324 74.604C130.688 74.976 129.944 75.162 129.092 75.162C128.216 75.162 127.424 74.946 126.716 74.514C126.008 74.082 125.45 73.476 125.042 72.696C124.634 71.916 124.43 71.028 124.43 70.032ZM132.782 70.05C132.782 69.306 132.632 68.658 132.332 68.106C132.032 67.554 131.624 67.134 131.108 66.846C130.604 66.546 130.046 66.396 129.434 66.396C128.822 66.396 128.264 66.54 127.76 66.828C127.256 67.116 126.854 67.536 126.554 68.088C126.254 68.64 126.104 69.288 126.104 70.032C126.104 70.788 126.254 71.448 126.554 72.012C126.854 72.564 127.256 72.99 127.76 73.29C128.264 73.578 128.822 73.722 129.434 73.722C130.046 73.722 130.604 73.578 131.108 73.29C131.624 72.99 132.032 72.564 132.332 72.012C132.632 71.448 132.782 70.794 132.782 70.05ZM138.844 66.738C139.132 66.174 139.54 65.736 140.068 65.424C140.608 65.112 141.262 64.956 142.03 64.956V66.648H141.598C139.762 66.648 138.844 67.644 138.844 69.636V75H137.206V65.136H138.844V66.738ZM143.309 70.032C143.309 69.024 143.513 68.142 143.921 67.386C144.329 66.618 144.887 66.024 145.595 65.604C146.315 65.184 147.113 64.974 147.989 64.974C148.853 64.974 149.603 65.16 150.239 65.532C150.875 65.904 151.349 66.372 151.661 66.936V65.136H153.317V75H151.661V73.164C151.337 73.74 150.851 74.22 150.203 74.604C149.567 74.976 148.823 75.162 147.971 75.162C147.095 75.162 146.303 74.946 145.595 74.514C144.887 74.082 144.329 73.476 143.921 72.696C143.513 71.916 143.309 71.028 143.309 70.032ZM151.661 70.05C151.661 69.306 151.511 68.658 151.211 68.106C150.911 67.554 150.503 67.134 149.987 66.846C149.483 66.546 148.925 66.396 148.313 66.396C147.701 66.396 147.143 66.54 146.639 66.828C146.135 67.116 145.733 67.536 145.433 68.088C145.133 68.64 144.983 69.288 144.983 70.032C144.983 70.788 145.133 71.448 145.433 72.012C145.733 72.564 146.135 72.99 146.639 73.29C147.143 73.578 147.701 73.722 148.313 73.722C148.925 73.722 149.483 73.578 149.987 73.29C150.503 72.99 150.911 72.564 151.211 72.012C151.511 71.448 151.661 70.794 151.661 70.05ZM164.581 65.136L158.641 79.644H156.949L158.893 74.892L154.915 65.136H156.733L159.829 73.128L162.889 65.136H164.581ZM165.616 70.032C165.616 69.024 165.82 68.142 166.228 67.386C166.636 66.618 167.194 66.024 167.902 65.604C168.622 65.184 169.42 64.974 170.296 64.974C171.16 64.974 171.91 65.16 172.546 65.532C173.182 65.904 173.656 66.372 173.968 66.936V65.136H175.624V75H173.968V73.164C173.644 73.74 173.158 74.22 172.51 74.604C171.874 74.976 171.13 75.162 170.278 75.162C169.402 75.162 168.61 74.946 167.902 74.514C167.194 74.082 166.636 73.476 166.228 72.696C165.82 71.916 165.616 71.028 165.616 70.032ZM173.968 70.05C173.968 69.306 173.818 68.658 173.518 68.106C173.218 67.554 172.81 67.134 172.294 66.846C171.79 66.546 171.232 66.396 170.62 66.396C170.008 66.396 169.45 66.54 168.946 66.828C168.442 67.116 168.04 67.536 167.74 68.088C167.44 68.64 167.29 69.288 167.29 70.032C167.29 70.788 167.44 71.448 167.74 72.012C168.04 72.564 168.442 72.99 168.946 73.29C169.45 73.578 170.008 73.722 170.62 73.722C171.232 73.722 171.79 73.578 172.294 73.29C172.81 72.99 173.218 72.564 173.518 72.012C173.818 71.448 173.968 70.794 173.968 70.05ZM183.198 64.956C184.398 64.956 185.37 65.322 186.114 66.054C186.858 66.774 187.23 67.818 187.23 69.186V75H185.61V69.42C185.61 68.436 185.364 67.686 184.872 67.17C184.38 66.642 183.708 66.378 182.856 66.378C181.992 66.378 181.302 66.648 180.786 67.188C180.282 67.728 180.03 68.514 180.03 69.546V75H178.392V65.136H180.03V66.54C180.354 66.036 180.792 65.646 181.344 65.37C181.908 65.094 182.526 64.956 183.198 64.956ZM193.974 64.974C194.826 64.974 195.57 65.16 196.206 65.532C196.854 65.904 197.334 66.372 197.646 66.936V65.136H199.302V75.216C199.302 76.116 199.11 76.914 198.726 77.61C198.342 78.318 197.79 78.87 197.07 79.266C196.362 79.662 195.534 79.86 194.586 79.86C193.29 79.86 192.21 79.554 191.346 78.942C190.482 78.33 189.972 77.496 189.816 76.44H191.436C191.616 77.04 191.988 77.52 192.552 77.88C193.116 78.252 193.794 78.438 194.586 78.438C195.486 78.438 196.218 78.156 196.782 77.592C197.358 77.028 197.646 76.236 197.646 75.216V73.146C197.322 73.722 196.842 74.202 196.206 74.586C195.57 74.97 194.826 75.162 193.974 75.162C193.098 75.162 192.3 74.946 191.58 74.514C190.872 74.082 190.314 73.476 189.906 72.696C189.498 71.916 189.294 71.028 189.294 70.032C189.294 69.024 189.498 68.142 189.906 67.386C190.314 66.618 190.872 66.024 191.58 65.604C192.3 65.184 193.098 64.974 193.974 64.974ZM197.646 70.05C197.646 69.306 197.496 68.658 197.196 68.106C196.896 67.554 196.488 67.134 195.972 66.846C195.468 66.546 194.91 66.396 194.298 66.396C193.686 66.396 193.128 66.54 192.624 66.828C192.12 67.116 191.718 67.536 191.418 68.088C191.118 68.64 190.968 69.288 190.968 70.032C190.968 70.788 191.118 71.448 191.418 72.012C191.718 72.564 192.12 72.99 192.624 73.29C193.128 73.578 193.686 73.722 194.298 73.722C194.91 73.722 195.468 73.578 195.972 73.29C196.488 72.99 196.896 72.564 197.196 72.012C197.496 71.448 197.646 70.794 197.646 70.05ZM201.458 70.032C201.458 69.024 201.662 68.142 202.07 67.386C202.478 66.618 203.036 66.024 203.744 65.604C204.464 65.184 205.262 64.974 206.138 64.974C207.002 64.974 207.752 65.16 208.388 65.532C209.024 65.904 209.498 66.372 209.81 66.936V65.136H211.466V75H209.81V73.164C209.486 73.74 209 74.22 208.352 74.604C207.716 74.976 206.972 75.162 206.12 75.162C205.244 75.162 204.452 74.946 203.744 74.514C203.036 74.082 202.478 73.476 202.07 72.696C201.662 71.916 201.458 71.028 201.458 70.032ZM209.81 70.05C209.81 69.306 209.66 68.658 209.36 68.106C209.06 67.554 208.652 67.134 208.136 66.846C207.632 66.546 207.074 66.396 206.462 66.396C205.85 66.396 205.292 66.54 204.788 66.828C204.284 67.116 203.882 67.536 203.582 68.088C203.282 68.64 203.132 69.288 203.132 70.032C203.132 70.788 203.282 71.448 203.582 72.012C203.882 72.564 204.284 72.99 204.788 73.29C205.292 73.578 205.85 73.722 206.462 73.722C207.074 73.722 207.632 73.578 208.136 73.29C208.652 72.99 209.06 72.564 209.36 72.012C209.66 71.448 209.81 70.794 209.81 70.05ZM219.04 64.956C220.24 64.956 221.212 65.322 221.956 66.054C222.7 66.774 223.072 67.818 223.072 69.186V75H221.452V69.42C221.452 68.436 221.206 67.686 220.714 67.17C220.222 66.642 219.55 66.378 218.698 66.378C217.834 66.378 217.144 66.648 216.628 67.188C216.124 67.728 215.872 68.514 215.872 69.546V75H214.234V65.136H215.872V66.54C216.196 66.036 216.634 65.646 217.186 65.37C217.75 65.094 218.368 64.956 219.04 64.956ZM226.629 63.534C226.317 63.534 226.053 63.426 225.837 63.21C225.633 62.994 225.531 62.73 225.531 62.418C225.531 62.106 225.633 61.842 225.837 61.626C226.053 61.41 226.317 61.302 226.629 61.302C226.941 61.302 227.199 61.41 227.403 61.626C227.619 61.842 227.727 62.106 227.727 62.418C227.727 62.73 227.619 62.994 227.403 63.21C227.199 63.426 226.941 63.534 226.629 63.534ZM227.439 77.142C227.439 78.018 227.217 78.66 226.773 79.068C226.329 79.476 225.681 79.68 224.829 79.68H223.875V78.294H224.559C225.015 78.294 225.333 78.204 225.513 78.024C225.705 77.844 225.801 77.538 225.801 77.106V65.136H227.439V77.142Z" fill="#2D2D2D"/>
<path d="M10.5 10.794V26.411V26.726V26.411C10.5 30.87 12.3375 34.818 15.1865 37.373C16.5795 38.6225 17.5 40.3095 17.5 42.182V68.25C17.5 71.148 19.852 73.5 22.75 73.5C25.648 73.5 28 71.148 28 68.25V42.182C28 40.3095 28.9205 38.6225 30.3135 37.373C33.1625 34.818 35 30.87 35 26.411V10.794V26.411" stroke="#FFB30E" stroke-width="6" stroke-linecap="round" stroke-linejoin="round"/>
<path d="M22.75 28V10.5" stroke="#FFB30E" stroke-width="6" stroke-linecap="round" stroke-linejoin="round"/>
<path d="M70 14.182C70 12.25 68.432 10.682 66.5 10.682H63C57.2005 10.682 52.5 15.3825 52.5 21.182V42.182C52.5 46.746 55.4295 50.5925 59.5 52.038V68.25C59.5 71.148 61.852 73.5 64.75 73.5C67.648 73.5 70 71.148 70 68.25V52.682V14.182Z" stroke="#FFB30E" stroke-width="6" stroke-linecap="round" stroke-linejoin="round"/>
</svg>
