<svg width="53" height="54" viewBox="0 0 53 54" fill="none" xmlns="http://www.w3.org/2000/svg">
<path d="M52.1933 5.17947L47.3229 0.309136C46.9111 -0.10272 46.2433 -0.10272 45.8313 0.309136L32.227 13.9135C30.2315 12.6854 27.9184 12.0191 25.5022 12.0191C21.7587 12.0191 18.2628 13.6181 15.8121 16.4286C15.1217 16.3135 14.413 16.2537 13.6905 16.2537C6.70701 16.2537 1.00505 21.8463 0.828392 28.7881C0.793798 28.8926 0.775024 29.0041 0.775024 29.12C0.775024 31.0903 1.01265 33.0199 1.48145 34.855C2.31561 38.1207 3.87517 41.1073 6.11681 43.732C8.11249 46.0687 10.6013 48.0665 13.5212 49.6766V52.9456C13.5212 53.5281 13.9934 54.0002 14.5759 54.0002H36.4283C37.0108 54.0002 37.483 53.5281 37.483 52.9456V49.6766C40.4029 48.0665 42.8919 46.0687 44.8876 43.732C47.1292 41.1073 48.6888 38.1207 49.5229 34.855C49.9917 33.0198 50.2293 31.0902 50.2293 29.12C50.2293 29.004 50.2106 28.8923 50.176 28.7879C50.0392 23.4149 46.5921 18.8501 41.8028 17.0615L52.1933 6.67101C52.6052 6.25916 52.6052 5.59133 52.1933 5.17947ZM46.5772 2.54645L47.5208 3.49007L34.903 16.1078C34.5978 15.7802 34.2778 15.4705 33.9445 15.1792L46.5772 2.54645ZM25.5022 14.1286C27.7491 14.1286 29.8897 14.8183 31.677 16.0775C31.7217 16.1155 31.7689 16.1492 31.818 16.1786C32.1821 16.4441 32.5309 16.7334 32.8623 17.0458C32.1345 17.3133 31.4374 17.6444 30.7777 18.033C29.2706 16.8702 27.4264 16.2379 25.5021 16.2379C23.5778 16.2379 21.7336 16.8702 20.2264 18.033C19.5668 17.6444 18.8697 17.3133 18.1419 17.0458C20.1259 15.1758 22.7333 14.1286 25.5022 14.1286ZM25.5022 20.4567C24.8354 20.4567 24.1805 20.6084 23.5863 20.8938C23.1181 20.3293 22.6033 19.8074 22.0481 19.3329C23.0766 18.6915 24.2676 18.3474 25.5021 18.3474C26.7366 18.3474 27.9275 18.6916 28.9562 19.3329C28.4011 19.8073 27.8864 20.3293 27.418 20.8938C26.8239 20.6084 26.169 20.4567 25.5022 20.4567ZM26.1815 22.6684C25.9646 23.0435 25.7652 23.4313 25.585 23.8308H25.4194C25.2391 23.4313 25.0399 23.0435 24.8229 22.6684C25.0416 22.6011 25.2706 22.5661 25.5022 22.5661C25.7339 22.5661 25.9628 22.6011 26.1815 22.6684ZM13.6905 18.3632C15.9163 18.3632 17.9864 19.0427 19.7041 20.2052C19.7092 20.2088 19.7143 20.2124 19.7193 20.2158C19.889 20.3311 20.0548 20.4507 20.2167 20.5744C20.2207 20.5775 20.2247 20.5806 20.2287 20.5836C20.2479 20.5983 20.267 20.6131 20.2861 20.6279C21.115 21.2731 22.4744 22.9179 22.4834 22.9301C22.9779 23.6305 23.3909 24.3922 23.7086 25.2015C23.711 25.2078 23.7135 25.214 23.716 25.2203C24.0659 26.1169 24.2989 27.0715 24.3961 28.0653H22.2741C21.7522 23.7926 18.1019 20.4723 13.6905 20.4723C9.27919 20.4723 5.6288 23.7925 5.10694 28.0653H2.98481C3.51658 22.6272 8.11502 18.3632 13.6905 18.3632ZM13.6905 24.6912C11.6117 24.6912 9.86295 26.1307 9.38856 28.0654H7.23731C7.74293 24.9597 10.4442 22.5818 13.6904 22.5818C16.9366 22.5818 19.638 24.9597 20.1436 28.0654H17.9925C17.5181 26.1309 15.7693 24.6912 13.6905 24.6912ZM15.756 28.0654H11.6249C12.0096 27.3152 12.7911 26.8006 13.6904 26.8006C14.5897 26.8006 15.3714 27.3152 15.756 28.0654ZM35.9385 48.1124C35.5913 48.2946 35.3737 48.6543 35.3737 49.0464V51.8909H15.6306V50.0985H27.8429C28.4254 50.0985 28.8975 49.6264 28.8975 49.0438C28.8975 48.4613 28.4254 47.9892 27.8429 47.9892H14.8337C9.36261 45.0568 5.61246 40.8136 3.90956 35.6488H47.095C45.368 40.8864 41.5359 45.1764 35.9385 48.1124ZM47.6647 33.5394H3.33981C3.1081 32.4474 2.96413 31.3215 2.9094 30.1747H48.0951C48.0404 31.3215 47.8965 32.4474 47.6647 33.5394ZM37.3139 24.6912C35.2351 24.6912 33.4863 26.1307 33.0119 28.0654H30.8606C31.3663 24.9597 34.0675 22.5818 37.3139 22.5818C40.5602 22.5818 43.2614 24.9597 43.7671 28.0654H41.6158C41.1414 26.1309 39.3926 24.6912 37.3139 24.6912ZM39.3795 28.0654H35.2483C35.633 27.3152 36.4145 26.8006 37.3139 26.8006C38.2133 26.8007 38.9948 27.3152 39.3795 28.0654ZM48.0196 28.0654H45.8975C45.3757 23.7927 41.7253 20.4725 37.314 20.4725C32.9026 20.4725 29.2522 23.7926 28.7304 28.0654H26.6082C26.7045 27.0801 26.9345 26.1334 27.2793 25.2435C27.2864 25.2252 27.2936 25.2069 27.3007 25.1887C27.3039 25.1807 27.3071 25.1727 27.3102 25.1648C27.3131 25.1576 27.3159 25.1505 27.3188 25.1433C27.3258 25.1255 27.333 25.1078 27.3402 25.09C27.3463 25.0748 27.3525 25.0596 27.3588 25.0444C27.3617 25.0371 27.3648 25.0299 27.3677 25.0227C27.6747 24.2802 28.0627 23.5792 28.5203 22.9309C28.5296 22.9185 28.5385 22.9058 28.5472 22.8931C29.1574 22.0366 30.7566 20.5982 30.7757 20.5836C30.7796 20.5807 30.7835 20.5777 30.7874 20.5747C30.9494 20.4508 31.1153 20.3312 31.285 20.2158C31.2902 20.2124 31.2952 20.2088 31.3002 20.2052C32.4485 19.4281 33.7542 18.8668 35.1586 18.58C35.1601 18.5797 35.1615 18.5794 35.163 18.5792C35.8582 18.4375 36.5775 18.3632 37.3139 18.3632C42.8895 18.3632 47.4879 22.6272 48.0196 28.0654ZM39.4501 16.4311C38.8892 16.337 38.3162 16.2792 37.7336 16.2606L49.0124 4.98172L49.9561 5.92535L39.4501 16.4311Z" fill="#323232"/>
</svg>
