<svg width="54" height="54" viewBox="0 0 54 54" fill="none" xmlns="http://www.w3.org/2000/svg">
<path d="M46.092 7.90815C40.9922 2.80842 34.212 0 27 0C19.788 0 13.0078 2.80842 7.90805 7.90815C2.80853 13.0078 0 19.788 0 27C0 34.212 2.80853 40.9922 7.90805 46.0919C13.0078 51.1916 19.788 54 27 54C34.212 54 40.9922 51.1916 46.092 46.0919C51.1915 40.9922 54 34.212 54 27C54 19.788 51.1915 13.0078 46.092 7.90815ZM27 51.8906C13.2752 51.8906 2.10938 40.7248 2.10938 27C2.10938 13.2752 13.2752 2.10938 27 2.10938C40.7248 2.10938 51.8906 13.2752 51.8906 27C51.8906 40.7248 40.7248 51.8906 27 51.8906Z" fill="#323232"/>
<path d="M47.6153 26.9997C47.6153 26.2164 47.9291 25.3184 48.2612 24.3677C48.7714 22.9077 49.2988 21.3978 48.8148 19.9113C48.3114 18.3656 46.9052 17.4005 45.6645 16.5492C44.8611 15.9979 44.1022 15.4771 43.6729 14.8879C43.2347 14.2864 42.9685 13.3948 42.6867 12.451C42.2593 11.0191 41.7747 9.39611 40.4783 8.45174C39.1938 7.51591 37.5805 7.55093 36.0205 7.58468C35.0285 7.60641 34.0916 7.62655 33.37 7.39146C32.697 7.1724 31.9791 6.62027 31.2191 6.03577C30.0177 5.11175 28.6558 4.06445 27 4.06445C25.3441 4.06445 23.9823 5.11186 22.7808 6.03598C22.0207 6.62048 21.303 7.17261 20.63 7.39178C19.9084 7.62676 18.9714 7.60641 17.9796 7.585C16.4197 7.55104 14.8062 7.51634 13.5217 8.45195C12.2253 9.39632 11.7409 11.0193 11.3133 12.4512C11.0315 13.3951 10.7653 14.2866 10.3271 14.8882C9.89781 15.4775 9.13885 15.9982 8.3355 16.5496C7.09476 17.401 5.68855 18.366 5.18515 19.9119C4.70115 21.3982 5.2286 22.908 5.73875 24.3681C6.07087 25.3188 6.38464 26.2168 6.38464 27.0001C6.38464 27.7834 6.07087 28.6814 5.73875 29.6321C5.2286 31.0921 4.70115 32.602 5.18515 34.0885C5.68855 35.6342 7.09476 36.5992 8.3355 37.4506C9.13885 38.002 9.89781 38.5228 10.3271 39.112C10.7653 39.7135 11.0315 40.605 11.3133 41.5489C11.7407 42.9808 12.2253 44.6038 13.5216 45.5482C14.8062 46.484 16.4197 46.4489 17.9796 46.4152C18.9711 46.3937 19.9084 46.3735 20.63 46.6084C21.303 46.8276 22.0209 47.3796 22.7809 47.9642C23.9823 48.8882 25.3441 49.9356 27 49.9356C28.6558 49.9356 30.0177 48.8881 31.2192 47.9637C31.9792 47.3793 32.697 46.8272 33.37 46.608C34.0914 46.373 35.0281 46.3933 36.0204 46.4148C37.5803 46.4484 39.1938 46.4836 40.4783 45.5478C41.7747 44.6035 42.2591 42.9805 42.6867 41.5486C42.9685 40.6047 43.2347 39.7132 43.6729 39.1116C44.1022 38.5223 44.8611 38.0016 45.6645 37.4502C46.9052 36.5988 48.3114 35.6338 48.8148 34.0879C49.2988 32.6016 48.7714 31.0918 48.2612 29.6317C47.9291 28.681 47.6153 27.783 47.6153 26.9997ZM46.27 30.3276C46.6828 31.5094 47.0728 32.6255 46.8091 33.4351C46.5274 34.3 45.5285 34.9856 44.471 35.7113C43.5564 36.3391 42.6104 36.9882 41.968 37.8699C41.3169 38.7637 40.9858 39.8729 40.6656 40.9455C40.3013 42.1657 39.9571 43.3181 39.2363 43.8433C38.5274 44.3595 37.3319 44.3337 36.0661 44.3063C34.9415 44.2819 33.779 44.2568 32.7168 44.6026C31.6987 44.9342 30.8012 45.6245 29.9332 46.2921C28.9075 47.081 27.9387 47.8262 27.0001 47.8262C26.0615 47.8262 25.0926 47.081 24.0669 46.2921C23.1988 45.6246 22.3012 44.9342 21.2833 44.6027C20.4952 44.3461 19.6519 44.2937 18.8099 44.2937C18.5169 44.2937 18.2241 44.3 17.9339 44.3062C16.668 44.3335 15.4727 44.3594 14.7637 43.843C14.0428 43.3179 13.6988 42.1654 13.3345 40.9452C13.0142 39.8726 12.683 38.7635 12.0321 37.8697C11.3898 36.9879 10.4438 36.3388 9.52909 35.7111C8.47155 34.9854 7.47266 34.2998 7.19095 33.435C6.92728 32.6254 7.3173 31.5091 7.73011 30.3274C8.10568 29.2525 8.49402 28.141 8.49402 26.9997C8.49402 25.8584 8.10568 24.7469 7.73011 23.6719C7.3173 22.4902 6.92728 21.3741 7.19095 20.5645C7.47266 19.6996 8.47155 19.014 9.52909 18.2883C10.4437 17.6605 11.3897 17.0114 12.0321 16.1297C12.6831 15.2359 13.0143 14.1267 13.3345 13.0541C13.6988 11.8339 14.0429 10.6815 14.7637 10.1563C15.4726 9.64005 16.6677 9.666 17.934 9.69332C19.0581 9.71768 20.221 9.74289 21.2833 9.39705C22.3014 9.06546 23.1989 8.37517 24.0669 7.70755C25.0927 6.91864 26.0615 6.17351 27.0001 6.17351C27.9386 6.17351 28.9075 6.91864 29.9332 7.70755C30.8013 8.37517 31.6988 9.06546 32.7168 9.39695C33.7791 9.74299 34.942 9.71778 36.0662 9.69342C37.3316 9.666 38.5274 9.64016 39.2364 10.1565C39.9572 10.6817 40.3013 11.8342 40.6656 13.0544C40.986 14.127 41.3171 15.2361 41.968 16.1299C42.6103 17.0117 43.5563 17.6607 44.471 18.2885C45.5285 19.0142 46.5274 19.6998 46.8091 20.5646C47.0728 21.3742 46.6828 22.4905 46.27 23.6721C45.8944 24.7471 45.5061 25.8586 45.5061 26.9999C45.5061 28.1412 45.8944 29.2527 46.27 30.3276Z" fill="#323232"/>
<path d="M41.5288 31.8035C40.976 31.6196 40.3788 31.9185 40.1949 32.4711C38.5338 37.4613 33.8873 40.8142 28.633 40.8142C28.0506 40.8142 27.5783 41.2864 27.5783 41.8689C27.5783 42.4514 28.0506 42.9236 28.633 42.9236C34.7972 42.9236 40.2478 38.9907 42.1964 33.1373C42.3803 32.5847 42.0814 31.9875 41.5288 31.8035Z" fill="#323232"/>
<path d="M41.8688 27.5784H41.8538C41.2714 27.5784 40.7991 28.0506 40.7991 28.6331C40.7991 29.2156 41.2714 29.6878 41.8538 29.6878H41.8688C42.4513 29.6878 42.9235 29.2156 42.9235 28.6331C42.9235 28.0506 42.4513 27.5784 41.8688 27.5784Z" fill="#323232"/>
<path d="M22.2423 22.3736C21.0087 21.1274 19.3638 20.4386 17.6107 20.4341C15.854 20.4312 14.2095 21.11 12.9698 22.3496C12.783 22.5365 12.6059 22.7363 12.4434 22.9436C11.7026 23.8886 11.7834 25.2404 12.6312 26.088L13.3545 26.8113C12.5739 27.2692 11.812 27.7248 11.3909 28.0006C10.9246 28.3059 10.6142 28.8171 10.5606 29.368C10.5096 29.8928 10.691 30.3997 11.0532 30.7535L13.8178 33.4923C14.1438 33.8181 14.5843 33.9969 15.0485 33.9969C15.1104 33.9969 15.1727 33.9937 15.2355 33.9873C15.7811 33.9311 16.2664 33.636 16.5669 33.1775C16.8405 32.7603 17.2972 31.9968 17.7566 31.2134L18.4798 31.9366C19.3276 32.7845 20.6797 32.8649 21.6247 32.1242C21.8702 31.9317 22.1051 31.7188 22.3227 31.4912C23.5018 30.2578 24.143 28.6331 24.1276 26.9162C24.1122 25.1995 23.4428 23.5864 22.2423 22.3736ZM20.798 30.0333C20.6498 30.1883 20.4902 30.3331 20.3234 30.4638C20.2168 30.5473 20.0654 30.5392 19.9713 30.4449L18.2793 28.753C18.0474 28.5212 17.7199 28.4105 17.396 28.4531C17.071 28.496 16.7843 28.6874 16.6203 28.9713C15.9126 30.1964 15.3531 31.1421 15.0062 31.7004L12.855 29.5692C13.5911 29.1113 14.8475 28.3801 15.5965 27.9474C15.8803 27.7834 16.0719 27.4968 16.1147 27.1717C16.1574 26.8466 16.0466 26.5202 15.8147 26.2884L14.1227 24.5964C14.0285 24.5022 14.0203 24.3509 14.1035 24.2447C14.2139 24.104 14.3344 23.9682 14.4615 23.841C15.2985 23.0039 16.4104 22.5434 17.5938 22.5434C17.5977 22.5434 17.6015 22.5434 17.6054 22.5434C18.793 22.5464 19.9072 23.0131 20.7431 23.8575C22.4147 25.5461 22.4392 28.3167 20.798 30.0333Z" fill="#323232"/>
<path d="M27.4292 9.72749C23.1611 9.72749 19.6888 13.1998 19.6888 17.4679C19.6888 18.0504 20.1611 18.5226 20.7435 18.5226H34.1149C34.6973 18.5226 35.1696 18.0504 35.1697 17.4679C35.1697 13.1998 31.6973 9.72749 27.4292 9.72749ZM21.8972 16.4133C22.3925 13.8107 24.6846 11.8369 27.4291 11.8369C30.1736 11.8369 32.4659 13.8107 32.9611 16.4133H21.8972Z" fill="#323232"/>
<path d="M28.633 22.8152C28.0506 22.8152 27.5783 23.2874 27.5783 23.8699V37.063C27.5783 37.6455 28.0506 38.1177 28.633 38.1177C32.8519 38.1177 36.2842 34.6853 36.2842 30.4663C36.2842 26.2475 32.8519 22.8152 28.633 22.8152ZM29.6877 35.9076V25.0253C32.2409 25.5192 34.1749 27.7712 34.1749 30.4664C34.1749 33.1617 32.2409 35.4137 29.6877 35.9076Z" fill="#323232"/>
<path d="M39.9619 18.6772C37.8101 18.6772 36.0596 20.4278 36.0596 22.5796C36.0596 24.7314 37.8101 26.4819 39.9619 26.4819C42.1138 26.4819 43.8643 24.7314 43.8643 22.5796C43.8643 20.4278 42.1137 18.6772 39.9619 18.6772ZM39.9619 24.3726C38.9733 24.3726 38.1689 23.5683 38.1689 22.5796C38.1689 21.5909 38.9733 20.7866 39.9619 20.7866C40.9506 20.7866 41.7549 21.5909 41.7549 22.5796C41.7549 23.5683 40.9506 24.3726 39.9619 24.3726Z" fill="#323232"/>
<path d="M21.1125 35.5878C18.9608 35.5878 17.2102 37.3384 17.2102 39.4901C17.2102 41.6419 18.9608 43.3925 21.1125 43.3925C23.2643 43.3925 25.0149 41.6419 25.0149 39.4901C25.0149 37.3384 23.2643 35.5878 21.1125 35.5878ZM21.1125 41.2831C20.1239 41.2831 19.3196 40.4788 19.3196 39.4901C19.3196 38.5015 20.1239 37.6972 21.1125 37.6972C22.1012 37.6972 22.9055 38.5015 22.9055 39.4901C22.9055 40.4788 22.1012 41.2831 21.1125 41.2831Z" fill="#323232"/>
</svg>
