<svg width="54" height="35" viewBox="0 0 54 35" fill="none" xmlns="http://www.w3.org/2000/svg">
<path d="M53.2481 29.4978L52.3771 28.551V14.9818C52.3771 14.3994 51.9048 13.9272 51.3225 13.9272H50.8241C50.7712 12.865 50.5529 11.7679 49.8841 10.8489C48.7613 9.30609 46.8327 8.803 44.9677 8.31648C43.7301 7.99353 42.5611 7.68873 41.7826 7.12204C41.0199 6.56685 40.3775 5.55879 39.6976 4.49155C38.6545 2.85446 37.576 1.16169 35.7356 0.5641C33.9713 -0.00880602 32.1423 0.704163 30.3736 1.3934C29.2078 1.84766 28.0025 2.31731 26.989 2.31731C25.9906 2.31731 24.7955 1.85493 23.6398 1.40796C21.8609 0.719878 20.0214 0.00838599 18.2456 0.595214C16.4228 1.19797 15.3558 2.88768 14.324 4.52182C13.6452 5.59697 13.0038 6.61263 12.237 7.17298C11.4614 7.73988 10.2913 8.04352 9.05241 8.3651C7.19152 8.84825 5.26704 9.34764 4.14253 10.8826C3.47533 11.7934 3.25258 12.8777 3.19405 13.9272H2.67936C2.09686 13.9272 1.62478 14.3994 1.62478 14.9818V28.551L0.753711 29.4978C-0.0177933 30.3363 -0.212594 31.5056 0.245246 32.5492C0.252418 32.5655 0.259695 32.5817 0.267078 32.5978C0.270769 32.6058 0.274566 32.6138 0.278258 32.622C0.67809 33.4707 1.4381 34.0442 2.33859 34.199C2.38109 34.2063 51.1666 34.241 51.1666 34.241C52.3062 34.241 53.2986 33.5928 53.7565 32.5492C54.2147 31.5058 54.0198 30.3365 53.2481 29.4978ZM50.2679 16.0364V26.2584L47.9695 23.7602C48.3201 22.7719 48.4975 21.7361 48.4975 20.6719C48.4975 18.984 48.0432 17.4002 47.2504 16.0364H50.2679ZM31.1393 3.3586C32.629 2.77821 34.0357 2.22977 35.0842 2.57022C36.2041 2.93388 37.037 4.24106 37.9188 5.62491C38.6743 6.81091 39.4557 8.0372 40.5415 8.82737C41.6427 9.62872 43.0624 9.99913 44.4354 10.3573C46.0112 10.7684 47.4997 11.1566 48.1789 12.0899C48.5317 12.5748 48.6682 13.239 48.7118 13.9272H45.5728C43.9168 12.3727 41.6901 11.4193 39.2451 11.4193C38.446 11.4193 37.6578 11.5206 36.8934 11.721L29.6953 3.89712C30.1814 3.73186 30.6633 3.54412 31.1393 3.3586ZM46.3883 20.6719C46.3883 21.0958 46.3519 21.5137 46.2797 21.9235L38.5839 13.5586C38.8027 13.5386 39.0233 13.5285 39.2449 13.5285C43.1837 13.5284 46.3883 16.733 46.3883 20.6719ZM5.84406 12.1291C6.52443 11.2004 8.00975 10.8148 9.5824 10.4067C10.9582 10.0494 12.3811 9.68029 13.4817 8.87578C14.5729 8.07843 15.353 6.84276 16.1075 5.6478C16.9792 4.26711 17.8027 2.96309 18.9078 2.59775C19.9659 2.24791 21.3809 2.7954 22.8791 3.37495C23.3484 3.55646 23.8233 3.74019 24.3024 3.90219L17.3173 11.4946C16.9256 11.4446 16.5293 11.4193 16.1334 11.4193C13.6882 11.4193 11.4616 12.3726 9.80557 13.9272H5.30743C5.35563 13.2543 5.49506 12.6055 5.84406 12.1291ZM15.4126 13.5645L8.99061 20.5447C9.05452 16.9064 11.852 13.9227 15.4126 13.5645ZM3.73405 16.0364H8.12756C7.33486 17.4002 6.88039 18.984 6.88039 20.6719C6.88039 21.3279 6.94926 21.9795 7.08532 22.6157L3.73405 26.2584V16.0364ZM51.8253 31.7017C51.7684 31.8312 51.5906 32.132 51.1668 32.132H2.83514C2.41115 32.132 2.23344 31.8311 2.1767 31.7017C2.17227 31.6916 2.16752 31.6802 2.16277 31.6678C2.16088 31.6628 2.15898 31.6576 2.15697 31.6523C2.15602 31.6496 2.15507 31.6469 2.15413 31.6442C2.15223 31.6386 2.15033 31.6329 2.14843 31.6271C2.14748 31.6241 2.14653 31.6212 2.14558 31.6181C2.09654 31.4581 2.06817 31.1843 2.30589 30.926L26.4716 4.65924C26.5384 4.58657 26.6103 4.53616 26.6806 4.50136C26.8058 4.43934 26.9254 4.42689 27.0009 4.42689C27.1187 4.42689 27.3442 4.45706 27.5301 4.65914L29.0065 6.26384L14.1017 22.4643C13.7074 22.893 13.7351 23.5601 14.1639 23.9544C14.5925 24.3488 15.2596 24.3211 15.654 23.8923L30.4395 7.82141L51.696 30.9258C51.9829 31.2379 51.8821 31.5724 51.8253 31.7017Z" fill="#323232"/>
</svg>
